<svg width="1600" height="900" viewBox="0 0 1600 900" fill="none" xmlns="http://www.w3.org/2000/svg">
  <rect width="1600" height="900" fill="#1B1718"/>
  <defs>
    <filter id="bgBlur" x="-60" y="-60" width="1720" height="1020" filterUnits="userSpaceOnUse" color-interpolation-filters="sRGB">
      <feGaussianBlur stdDeviation="38"/>
    </filter>
    <linearGradient id="titleGrad" x1="800" y1="300" x2="800" y2="690" gradientUnits="userSpaceOnUse">
      <stop stop-color="#FF90C2"/>
      <stop offset="0.45" stop-color="#FF4C8F"/>
      <stop offset="1" stop-color="#40253F"/>
    </linearGradient>
    <linearGradient id="sparkGrad" x1="890" y1="330" x2="1070" y2="450" gradientUnits="userSpaceOnUse">
      <stop stop-color="#FFE997"/>
      <stop offset="1" stop-color="#FFB92D"/>
    </linearGradient>
    <filter id="titleGlow" x="180" y="240" width="1240" height="500" filterUnits="userSpaceOnUse" color-interpolation-filters="sRGB">
      <feDropShadow dx="0" dy="0" stdDeviation="8" flood-color="#FF4A91" flood-opacity="0.75"/>
      <feDropShadow dx="0" dy="0" stdDeviation="2" flood-color="#000000" flood-opacity="1"/>
    </filter>
  </defs>

  <g filter="url(#bgBlur)" opacity="0.92">
    <circle cx="170" cy="190" r="110" fill="#D2B31E"/>
    <circle cx="360" cy="120" r="74" fill="#004D97"/>
    <circle cx="610" cy="170" r="102" fill="#9A2D3C"/>
    <circle cx="760" cy="120" r="84" fill="#104D8A"/>
    <circle cx="980" cy="140" r="98" fill="#007964"/>
    <circle cx="1210" cy="100" r="120" fill="#F0F0F0"/>
    <circle cx="1510" cy="240" r="68" fill="#78A7DF"/>
    <circle cx="1330" cy="620" r="360" fill="#05070C"/>
    <circle cx="1180" cy="760" r="150" fill="#0B4F8C"/>
    <circle cx="1440" cy="520" r="70" fill="#0E74C5"/>
    <circle cx="1000" cy="810" r="240" fill="#111217"/>
    <circle cx="340" cy="780" r="170" fill="#D8D2CB"/>
  </g>

  <g filter="url(#titleGlow)">
    <text x="250" y="455" fill="url(#titleGrad)" stroke="#FFD1E7" stroke-width="8" paint-order="stroke" font-size="180" font-style="italic" font-weight="800" font-family="Times New Roman, Georgia, serif">FULL COMBO</text>
    <text x="470" y="655" fill="url(#titleGrad)" stroke="#FFD1E7" stroke-width="8" paint-order="stroke" font-size="188" font-style="italic" font-weight="800" font-family="Times New Roman, Georgia, serif">LEGACY</text>
  </g>

  <path d="M475 690H1170" stroke="#FF5A95" stroke-width="12" stroke-linecap="round"/>
  <path d="M875 355H1290" stroke="url(#sparkGrad)" stroke-width="10" stroke-linecap="round"/>
  <circle cx="1005" cy="365" r="58" stroke="url(#sparkGrad)" stroke-width="8"/>
  <path d="M1005 301V429" stroke="url(#sparkGrad)" stroke-width="8" stroke-linecap="round"/>
  <path d="M942 365H1068" stroke="url(#sparkGrad)" stroke-width="8" stroke-linecap="round"/>

  <g fill="#FFF3FB" opacity="0.6">
    <circle cx="340" cy="430" r="2.5"/>
    <circle cx="410" cy="396" r="2"/>
    <circle cx="552" cy="468" r="2"/>
    <circle cx="730" cy="382" r="2.5"/>
    <circle cx="946" cy="438" r="2"/>
    <circle cx="1108" cy="404" r="2.5"/>
    <circle cx="1240" cy="470" r="2"/>
    <circle cx="612" cy="650" r="2.5"/>
    <circle cx="852" cy="610" r="2"/>
    <circle cx="1044" cy="670" r="2.5"/>
  </g>
</svg>
